<svg width="72" height="72" viewBox="0 0 72 72" fill="none" xmlns="http://www.w3.org/2000/svg">
<g style="mix-blend-mode:darken">
<path d="M33.6978 21.0001C33.6978 31.1251 41.25 38.1381 51.0001 38.1381C52.2933 38.1381 53.5475 38.0209 54.7501 37.7933C62.6142 36.3048 68.2759 30.0909 68.2759 21.0001C68.2759 10.1993 59.1945 3.92922 51.0001 3.92922C41.944 3.92922 33.6978 10.875 33.6978 21.0001Z" fill="#FCCF2A"/>
<path fill-rule="evenodd" clip-rule="evenodd" d="M72.0002 24.6993C70.6877 25.7735 69.1277 26.3307 67.4523 26.9212C67.5619 27.1215 67.6727 27.3201 67.7829 27.5179C68.4927 28.7911 69.1846 30.0322 69.4426 31.4812C68.3119 32.0547 67.1455 32.0773 65.9543 32.1003C65.4515 32.11 64.9442 32.1198 64.4333 32.1712C64.4563 32.3322 64.4798 32.4924 64.5032 32.6519C64.7242 34.1582 64.9367 35.6064 64.652 37.1438C63.3 37.1606 62.0725 36.7691 60.8143 36.3677L60.8135 36.3675C60.4793 36.2608 60.1428 36.1535 59.8013 36.053C59.6803 36.4943 59.5818 36.9367 59.4835 37.3777C59.2207 38.5575 58.9604 39.7264 58.2797 40.8311C56.6765 40.217 55.3688 39.1783 54.042 38.0354C53.9285 38.2213 53.8172 38.4072 53.7065 38.5921L53.7059 38.5931C52.951 39.8534 52.2213 41.0719 51.0037 42.0002C49.8717 41.1911 49.1823 40.0642 48.4772 38.9118C48.3019 38.6253 48.1256 38.3371 47.9414 38.052C46.6265 39.1594 45.3525 40.1601 43.7781 40.8169C43.0612 39.8362 42.8168 38.7295 42.568 37.6032C42.4523 37.0792 42.3356 36.551 42.17 36.0293C42.0945 36.0554 42.0192 36.0816 41.944 36.1077C40.4442 36.6284 39.0018 37.1292 37.3698 37.1699C37.0353 35.7521 37.2325 34.3815 37.4351 32.9729C37.4728 32.7111 37.5106 32.448 37.5453 32.1831C37.0147 32.1227 36.4882 32.1097 35.9657 32.0967C34.824 32.0683 33.7016 32.0404 32.5984 31.5215C32.7404 30.0677 33.4532 28.8375 34.2004 27.5482C34.3136 27.3528 34.4277 27.1558 34.5406 26.9567C34.29 26.8576 34.0395 26.7619 33.79 26.6667C32.4457 26.1533 31.1317 25.6515 30.0024 24.6874C30.685 23.4471 31.7069 22.5604 32.7429 21.6616C32.9765 21.4589 33.2108 21.2556 33.4421 21.0475C33.1324 20.7491 32.8157 20.4653 32.5014 20.1835C31.5643 19.3435 30.648 18.5221 30 17.391C31.1338 16.4144 32.4772 15.8977 33.8626 15.3649C34.0749 15.2832 34.2884 15.2011 34.5022 15.1169C34.3504 14.825 34.1937 14.5379 34.0377 14.2522C33.3979 13.0806 32.7702 11.931 32.5479 10.5546C33.8414 10.0355 35.1485 9.9792 36.4851 9.92161C36.8276 9.90686 37.1722 9.89202 37.5188 9.86928C37.4831 9.50782 37.4369 9.14865 37.3908 8.7897C37.2323 7.55681 37.0742 6.32658 37.3386 5.01526C38.5915 4.86341 39.7377 5.24142 40.9143 5.62942C41.3179 5.7625 41.725 5.89675 42.1412 6.0112C42.3406 5.44473 42.4742 4.86414 42.6069 4.28718C42.847 3.24354 43.0844 2.21181 43.7036 1.29709C44.905 1.68301 45.8561 2.3952 46.8272 3.1223C47.1986 3.40043 47.573 3.68075 47.9654 3.94581C48.1718 3.63638 48.3683 3.32294 48.5642 3.01056C49.2462 1.92254 49.9202 0.847476 50.9772 0C52.0942 0.870048 52.8066 2.01838 53.5507 3.21794C53.6969 3.45363 53.8444 3.69129 53.9963 3.92922C54.5095 3.6236 54.9856 3.2663 55.4608 2.90965C56.3168 2.26732 57.1699 1.62711 58.2317 1.29472C58.9031 2.21248 59.1425 3.26057 59.3848 4.32159C59.5138 4.8862 59.6436 5.45457 59.8398 6.00883C60.2131 5.90226 60.5797 5.78346 60.944 5.6654C62.1443 5.27645 63.3205 4.8953 64.6352 4.98444C64.9518 6.53516 64.7245 8.01447 64.4903 9.53782L64.4901 9.53963C64.4719 9.65792 64.4537 9.77648 64.4357 9.89536C64.6881 9.90599 64.9393 9.91413 65.1894 9.92224C66.6131 9.96837 68.0023 10.0134 69.3945 10.5095C69.2467 11.8723 68.6268 12.9905 67.9848 14.1487C67.8125 14.4594 67.6383 14.7735 67.4716 15.0956C67.8766 15.2794 68.2903 15.4422 68.7035 15.6049C69.8523 16.0571 70.9965 16.5075 71.9353 17.4005C71.3659 18.5675 70.4199 19.3826 69.4394 20.2274C69.1449 20.4812 68.8471 20.7378 68.5556 21.0072C68.8739 21.3211 69.2063 21.6199 69.5392 21.9192C70.4484 22.7364 71.3615 23.5572 72.0002 24.6993ZM51.025 38.138C51.0456 38.1379 51.0662 38.1378 51.0868 38.1377C51.1268 38.138 51.1669 38.1381 51.207 38.1381C51.642 38.1381 52.0732 37.4097 52.5001 37.3777C61.323 36.7168 68.276 30.061 68.276 21.069C68.276 11.6421 60.6339 4.00002 51.207 4.00002C51.1669 4.00002 51.1268 4.00015 51.0868 4.00043C51.0463 4.00015 51.0058 4.00002 50.9652 4.00002C41.4286 4.00002 33.6977 11.6421 33.6977 21.069C33.6977 30.496 41.4286 38.1381 50.9652 38.1381C50.9851 38.1381 51.0051 38.1381 51.025 38.138Z" fill="#FCCF2A"/>
<path fill-rule="evenodd" clip-rule="evenodd" d="M15.1441 41.9271C15.1441 40.3901 15.1456 38.8532 15.1472 37.3163V37.3162V37.3161V37.3161V37.316V37.3159V37.3159V37.3158C15.1514 33.1573 15.1556 28.9991 15.129 24.8415C15.1202 23.5207 15.9705 22.4947 17.4902 22.501C23.7301 22.53 29.97 22.5262 36.2099 22.5224C38.3341 22.5211 40.4583 22.5198 42.5826 22.5198C44.0808 22.5198 44.867 23.305 44.867 24.8114C44.8679 32.4575 44.8676 40.1036 44.8673 47.7493L44.867 59.2171C44.867 59.2534 44.8706 59.2926 44.8742 59.3321L44.8742 59.3322V59.3322C44.883 59.4293 44.892 59.5276 44.8481 59.5846L44.8304 59.6079C44.6947 59.7858 44.5115 60.026 44.3525 60.0236C44.1877 60.0211 43.9915 59.7577 43.8757 59.5683C43.8266 59.4887 43.8381 59.3719 43.8495 59.2553C43.8544 59.2047 43.8594 59.1542 43.8594 59.1067V24.9355C43.8594 23.8092 43.5625 23.5069 42.4492 23.5069H17.5455C16.4561 23.5069 16.1592 23.8079 16.1592 24.9067C16.1592 36.2967 16.1592 47.6879 16.158 59.0779C16.158 59.1291 16.1618 59.1831 16.1656 59.2374C16.1756 59.3812 16.1859 59.5272 16.1265 59.631C16.0246 59.8079 15.8058 60.0299 15.6422 60.0274C15.4774 60.0236 15.2824 59.7903 15.1692 59.6135C15.1179 59.5326 15.1278 59.4113 15.1376 59.2918C15.1415 59.2444 15.1453 59.1973 15.1453 59.1531C15.1441 53.4111 15.1441 47.6691 15.1441 41.9271ZM6.00126 61.3972C6.18366 61.0774 6.4818 61.0498 6.81138 61.0498C9.81845 61.054 12.8246 61.0538 15.8314 61.0536H15.8315H15.8316H15.8316H15.8317H15.8318H15.8318H15.8319L17.6373 61.0536H52.9859C53.9822 61.0536 54.0891 61.174 53.952 62.141C53.6325 64.3874 51.8134 65.9828 49.5064 65.9929C47.267 66.0039 45.0281 66.0017 42.7891 65.9996H42.789H42.7889H42.7888H42.7887H42.7886H42.7885H42.7884C41.7173 65.9985 40.6461 65.9975 39.5748 65.9979H10.9098C8.24922 65.9979 6.68936 64.7838 6.05409 62.2225C6.04983 62.2038 6.03518 62.188 6.02031 62.172C6.01322 62.1643 6.00609 62.1566 6 62.1485C6.00126 61.8977 6.00126 61.6468 6.00126 61.3972ZM52.923 62.0871H7.05165C7.21141 62.9927 7.63031 63.6988 8.32093 64.2494C9.01532 64.8026 9.81412 64.9982 10.6897 64.9982C19.2825 64.9957 27.8748 64.9954 36.4673 64.9952L36.6413 64.9952H36.6413H36.6414H36.6414H36.6415H36.6415C40.8731 64.995 45.1048 64.9949 49.3365 64.9945C49.5403 64.9945 49.7441 64.9857 49.9479 64.9681C51.4474 64.8364 52.7796 63.5508 52.923 62.0871ZM32.3516 26.2806L30.0154 26.2808L28.2623 26.2807C26.5098 26.2804 24.7579 26.2802 23.006 26.2821C22.3481 26.2821 22.2198 26.4125 22.2185 27.0823L22.218 27.5171V27.5175V27.518V27.5184V27.5189V27.5194V27.5198C22.2167 28.3902 22.2155 29.2613 22.2198 30.1314C22.2223 30.7184 22.3808 30.8727 22.9809 30.8727C27.6693 30.874 32.3589 30.874 37.0473 30.8727C37.626 30.8714 37.7782 30.7247 37.782 30.1553C37.787 29.1067 37.787 28.0594 37.782 27.0121C37.7782 26.4 37.6511 26.2808 37.0247 26.2808C35.4673 26.28 33.9093 26.2803 32.3516 26.2806ZM36.7555 29.8229H23.2551V27.3005H36.7555V29.8229ZM51.9513 46.6065V59.1341C51.9513 59.1768 51.9558 59.2225 51.9604 59.2684C51.9708 59.3732 51.9812 59.4785 51.9374 59.5492C51.8192 59.7399 51.6594 59.9895 51.4733 60.0346C51.1776 60.1061 50.9877 59.8703 50.9512 59.5668C50.9364 59.4423 50.9386 59.315 50.9408 59.1881V59.188C50.9416 59.1424 50.9424 59.0967 50.9424 59.0513V34.4188C50.9424 34.3739 50.9426 34.3292 50.9428 34.2845C50.9433 34.1729 50.9438 34.0616 50.9411 33.9497C50.9147 33.0077 50.3096 32.3994 49.3687 32.3881C48.4277 32.3781 47.4868 32.3793 46.5458 32.3881C46.1898 32.3919 45.8867 32.3016 45.8754 31.9077C45.8628 31.4788 46.1873 31.3822 46.5559 31.3835C46.8755 31.3843 47.1952 31.3826 47.5149 31.3808H47.515C48.1366 31.3774 48.7582 31.374 49.3788 31.3897C50.9223 31.4274 51.95 32.4885 51.9513 34.0325C51.9529 36.8261 51.9524 39.6203 51.9518 42.4146C51.9516 43.8119 51.9513 45.2092 51.9513 46.6065ZM8.0668 42.4685L8.06708 46.6126C8.06708 50.7881 8.06708 54.9623 8.06834 59.1402C8.06834 59.2029 8.06866 59.2653 8.06897 59.3277C8.06929 59.3901 8.0696 59.4525 8.0696 59.5153C8.06834 59.8313 8.23313 60.0383 8.53882 60.0521C8.87846 60.0671 9.04326 59.8439 9.05709 59.514C9.06199 59.3921 9.06155 59.2709 9.06112 59.1494L9.06087 59.0449V44.079V34.4149C9.06087 32.8709 9.54141 32.3867 11.0711 32.3867C11.3015 32.3867 11.5321 32.3862 11.7627 32.3857H11.7628H11.7628H11.7629H11.763C12.3165 32.3844 12.8703 32.3831 13.4235 32.3892C13.7832 32.393 14.1002 32.3454 14.1367 31.9051C14.1644 31.5652 13.909 31.3896 13.4033 31.3871C12.5567 31.3821 11.7089 31.3833 10.8623 31.3858C9.07596 31.3909 8.06708 32.398 8.06708 34.1803C8.06625 36.9431 8.06652 39.7058 8.0668 42.4685ZM29.8707 38.2175C33.2596 38.2175 36.6486 38.2175 40.0375 38.2188C40.0791 38.2188 40.1236 38.2157 40.1685 38.2125L40.1686 38.2125C40.2923 38.2038 40.4195 38.1949 40.4979 38.2501C40.6677 38.3718 40.8715 38.57 40.8841 38.7481C40.8942 38.8936 40.6677 39.093 40.5017 39.1984C40.4175 39.2519 40.2924 39.2436 40.1696 39.2355C40.1255 39.2326 40.0816 39.2297 40.04 39.2297C33.2785 39.231 26.517 39.231 19.7542 39.231C19.7256 39.231 19.6968 39.2314 19.668 39.2318H19.6679H19.6678H19.6677H19.6677H19.6677C19.5867 39.2331 19.5053 39.2343 19.4247 39.226C19.1215 39.1959 18.9114 39.0428 18.9102 38.7255C18.9089 38.4069 19.1202 38.2526 19.4221 38.2238C19.5226 38.2139 19.6244 38.2156 19.7266 38.2174C19.7664 38.2181 19.8062 38.2188 19.8461 38.2188C23.1885 38.2175 26.5296 38.2175 29.8707 38.2175ZM40.0399 42.8002H29.97H19.807C19.1554 42.8002 18.9101 42.9344 18.9063 43.2919C18.9025 43.6531 19.1566 43.7998 19.7982 43.7998H19.8288C26.5638 43.7998 33.2974 43.7998 40.0324 43.7986C40.072 43.7986 40.1139 43.801 40.1562 43.8035C40.2818 43.8109 40.4109 43.8185 40.4928 43.7622C40.6626 43.6431 40.8878 43.4374 40.8815 43.2768C40.874 43.115 40.6324 42.9344 40.4563 42.819C40.3851 42.7728 40.2767 42.7826 40.1695 42.7922C40.1252 42.7962 40.0811 42.8002 40.0399 42.8002ZM29.9199 34.6451H19.7569C19.713 34.6451 19.666 34.6489 19.6188 34.6527H19.6188C19.4983 34.6624 19.3756 34.6723 19.2952 34.62C19.1329 34.5134 18.9342 34.3177 18.9317 34.1584C18.9291 34.0029 19.1304 33.806 19.2902 33.6994C19.3745 33.6427 19.5044 33.65 19.63 33.6571C19.6713 33.6595 19.712 33.6618 19.7506 33.6618C26.5108 33.6605 33.2698 33.6605 40.0301 33.6605C40.6679 33.6605 40.9509 33.8185 40.9044 34.1773C40.8414 34.661 40.487 34.6549 40.1385 34.6489C40.1039 34.6483 40.0693 34.6477 40.0351 34.6476C36.6638 34.6451 33.2912 34.6451 29.9199 34.6451ZM22.4277 48.3581C22.7912 48.3579 23.1547 48.3576 23.518 48.3576C23.8986 48.3576 24.2791 48.3574 24.6596 48.3572C25.6113 48.3567 26.5629 48.3562 27.5146 48.3588C27.8592 48.3601 28.1146 48.2397 28.1196 47.8647C28.1247 47.5147 27.8869 47.378 27.5598 47.378C27.1252 47.3778 26.6905 47.3774 26.2558 47.3771C23.9944 47.3752 21.7323 47.3733 19.4712 47.3943C19.2838 47.3956 19.0133 47.6025 18.9315 47.7819C18.7957 48.0804 19.0951 48.3526 19.5203 48.3551C20.489 48.3596 21.4585 48.3589 22.4277 48.3581Z" fill="#221817"/>
<path d="M15.1472 37.3163L15.2972 37.3164V37.3163H15.1472ZM15.1472 37.3158L14.9972 37.3156V37.3158H15.1472ZM15.129 24.8415L15.279 24.8405V24.8405L15.129 24.8415ZM17.4902 22.501L17.4909 22.351L17.4908 22.351L17.4902 22.501ZM36.2099 22.5224L36.21 22.6724L36.2099 22.5224ZM44.867 24.8114H44.717V24.8114L44.867 24.8114ZM44.8673 47.7493L44.7173 47.7493V47.7493L44.8673 47.7493ZM44.867 59.2171L44.717 59.2171V59.2171H44.867ZM44.8742 59.3321L44.7246 59.3457L44.7257 59.3533L44.8742 59.3321ZM44.8742 59.3322H45.0242V59.3215L45.0227 59.311L44.8742 59.3322ZM44.8742 59.3322H44.7236L44.7248 59.3458L44.8742 59.3322ZM44.8481 59.5846L44.7292 59.4933L44.7289 59.4936L44.8481 59.5846ZM44.8304 59.6079L44.7112 59.5169L44.7111 59.5169L44.8304 59.6079ZM44.3525 60.0236L44.3502 60.1736H44.3503L44.3525 60.0236ZM43.8757 59.5683L44.0037 59.4901L44.0034 59.4895L43.8757 59.5683ZM43.8495 59.2553L43.9988 59.2699V59.2699L43.8495 59.2553ZM16.158 59.0779L16.008 59.0779V59.0779H16.158ZM16.1656 59.2374L16.3152 59.2269L16.1656 59.2374ZM16.1265 59.631L16.2565 59.7059L16.2567 59.7055L16.1265 59.631ZM15.6422 60.0274L15.6388 60.1773L15.6399 60.1774L15.6422 60.0274ZM15.1692 59.6135L15.0426 59.6939L15.0429 59.6943L15.1692 59.6135ZM15.1376 59.2918L15.2871 59.304V59.304L15.1376 59.2918ZM15.1453 59.1531H15.2953V59.1531L15.1453 59.1531ZM6.81138 61.0498L6.81159 60.8998H6.81138V61.0498ZM6.00126 61.3972L5.87096 61.3229L5.85126 61.3575V61.3972H6.00126ZM15.8314 61.0536V60.9036H15.8314L15.8314 61.0536ZM15.8319 61.0536V61.2036H15.8319L15.8319 61.0536ZM17.6373 61.0536V60.9036H17.6373L17.6373 61.0536ZM53.952 62.141L54.1005 62.1621L54.1005 62.1621L53.952 62.141ZM49.5064 65.9929L49.5057 65.8429H49.5056L49.5064 65.9929ZM42.7891 65.9996L42.7893 65.8496H42.7891V65.9996ZM42.7884 65.9996L42.7882 66.1496H42.7884V65.9996ZM39.5748 65.9979V66.1479H39.5749L39.5748 65.9979ZM6.05409 62.2225L5.90782 62.2559L5.9085 62.2587L6.05409 62.2225ZM6.02031 62.172L6.13034 62.07L6.13033 62.07L6.02031 62.172ZM6 62.1485L5.85 62.1478L5.84975 62.1983L5.88013 62.2387L6 62.1485ZM7.05165 62.0871V61.9371H6.87287L6.90393 62.1131L7.05165 62.0871ZM52.923 62.0871L53.0722 62.1017L53.0884 61.9371H52.923V62.0871ZM8.32093 64.2494L8.22742 64.3667L8.22747 64.3668L8.32093 64.2494ZM10.6897 64.9982V65.1482H10.6897L10.6897 64.9982ZM36.4673 64.9952L36.4673 65.1452L36.4673 64.9952ZM36.6413 64.9952V64.8452H36.6412L36.6413 64.9952ZM36.6415 64.9952V65.1452H36.6415L36.6415 64.9952ZM49.3365 64.9945V64.8445H49.3365L49.3365 64.9945ZM49.9479 64.9681L49.9608 65.1176L49.961 65.1176L49.9479 64.9681ZM30.0154 26.2808L30.0153 26.4308H30.0154L30.0154 26.2808ZM32.3516 26.2806L32.3516 26.4306H32.3516L32.3516 26.2806ZM28.2623 26.2807L28.2622 26.4307H28.2623L28.2623 26.2807ZM23.006 26.2821V26.4321L23.0062 26.4321L23.006 26.2821ZM22.2185 27.0823L22.0686 27.082V27.0821L22.2185 27.0823ZM22.218 27.5171L22.068 27.5169V27.5171H22.218ZM22.218 27.5198L22.368 27.52V27.5198H22.218ZM22.2198 30.1314L22.3698 30.1308V30.1307L22.2198 30.1314ZM22.9809 30.8727L22.9809 30.7227H22.9809V30.8727ZM37.0473 30.8727L37.0474 31.0227H37.0476L37.0473 30.8727ZM37.782 30.1553L37.932 30.1562L37.932 30.156L37.782 30.1553ZM37.782 27.0121L37.932 27.0113L37.932 27.0111L37.782 27.0121ZM37.0247 26.2808L37.0246 26.4308H37.0247V26.2808ZM23.2551 29.8229H23.1051V29.9729H23.2551V29.8229ZM36.7555 29.8229V29.9729H36.9055V29.8229H36.7555ZM23.2551 27.3005V27.1505H23.1051V27.3005H23.2551ZM36.7555 27.3005H36.9055V27.1505H36.7555V27.3005ZM51.9604 59.2684L52.1096 59.2535V59.2535L51.9604 59.2684ZM51.9374 59.5492L52.0649 59.6283L52.065 59.6282L51.9374 59.5492ZM51.4733 60.0346L51.5085 60.1804L51.5086 60.1804L51.4733 60.0346ZM50.9512 59.5668L50.8022 59.5845L50.8023 59.5847L50.9512 59.5668ZM50.9408 59.1881L51.0908 59.1907V59.1881H50.9408ZM50.9408 59.188L50.7908 59.1854V59.188H50.9408ZM50.9428 34.2845L50.7928 34.2838V34.2838L50.9428 34.2845ZM50.9411 33.9497L51.0911 33.9461L51.0911 33.9455L50.9411 33.9497ZM49.3687 32.3881L49.3705 32.2381L49.3703 32.2381L49.3687 32.3881ZM46.5458 32.3881L46.5444 32.2381L46.5443 32.2381L46.5458 32.3881ZM45.8754 31.9077L46.0253 31.9034L46.0253 31.9033L45.8754 31.9077ZM46.5559 31.3835L46.5554 31.5335L46.5555 31.5335L46.5559 31.3835ZM47.5149 31.3808V31.2308L47.5141 31.2308L47.5149 31.3808ZM47.515 31.3808V31.5308L47.5158 31.5308L47.515 31.3808ZM49.3788 31.3897L49.375 31.5397L49.3751 31.5397L49.3788 31.3897ZM51.9513 34.0325L52.1013 34.0324V34.0323L51.9513 34.0325ZM51.9518 42.4146L51.8018 42.4146L51.9518 42.4146ZM8.06708 46.6126H8.21708V46.6126L8.06708 46.6126ZM8.0668 42.4685L8.2168 42.4685V42.4685L8.0668 42.4685ZM8.06834 59.1402H8.21834V59.1402L8.06834 59.1402ZM8.06897 59.3277L7.91897 59.3285H7.91897L8.06897 59.3277ZM8.0696 59.5153L8.2196 59.5159V59.5153H8.0696ZM8.53882 60.0521L8.53205 60.2019L8.53218 60.2019L8.53882 60.0521ZM9.05709 59.514L9.20696 59.5203L9.20697 59.52L9.05709 59.514ZM9.06112 59.1494L8.91112 59.1497L8.91112 59.1499L9.06112 59.1494ZM9.06087 59.0449H8.91087L8.91087 59.0453L9.06087 59.0449ZM11.7627 32.3857V32.2357H11.7623L11.7627 32.3857ZM11.763 32.3857V32.5357H11.7633L11.763 32.3857ZM13.4235 32.3892L13.4218 32.5392L13.4219 32.5392L13.4235 32.3892ZM14.1367 31.9051L14.2862 31.9175L14.2862 31.9173L14.1367 31.9051ZM13.4033 31.3871L13.4024 31.5371L13.4026 31.5371L13.4033 31.3871ZM10.8623 31.3858L10.8627 31.5358H10.8627L10.8623 31.3858ZM8.06708 34.1803L8.21708 34.1804V34.1803H8.06708ZM40.0375 38.2188L40.0375 38.3688H40.0375V38.2188ZM40.1685 38.2125L40.1592 38.0628L40.1581 38.0629L40.1685 38.2125ZM40.1686 38.2125L40.1779 38.3622L40.1791 38.3621L40.1686 38.2125ZM40.4979 38.2501L40.5853 38.1282L40.5843 38.1275L40.4979 38.2501ZM40.8841 38.7481L41.0338 38.7377L41.0337 38.7375L40.8841 38.7481ZM40.5017 39.1984L40.4213 39.0717L40.4212 39.0718L40.5017 39.1984ZM40.1696 39.2355L40.1597 39.3852H40.1597L40.1696 39.2355ZM40.04 39.2297V39.0797H40.04L40.04 39.2297ZM19.668 39.2318V39.3819L19.6703 39.3818L19.668 39.2318ZM19.6677 39.2318V39.0818L19.6654 39.0819L19.6677 39.2318ZM19.4247 39.226L19.4401 39.0767L19.4395 39.0767L19.4247 39.226ZM18.9102 38.7255L18.7602 38.7261V38.7261L18.9102 38.7255ZM19.4221 38.2238L19.4364 38.3731L19.4369 38.3731L19.4221 38.2238ZM19.7266 38.2174L19.7292 38.0674L19.7266 38.2174ZM19.8461 38.2188V38.3688H19.8461L19.8461 38.2188ZM18.9063 43.2919L18.7563 43.2903V43.2903L18.9063 43.2919ZM40.0324 43.7986V43.6486H40.0324L40.0324 43.7986ZM40.1562 43.8035L40.1473 43.9533L40.1562 43.8035ZM40.4928 43.7622L40.5778 43.8858L40.5789 43.885L40.4928 43.7622ZM40.8815 43.2768L41.0314 43.2709L41.0313 43.2698L40.8815 43.2768ZM40.4563 42.819L40.5385 42.6935L40.5379 42.6931L40.4563 42.819ZM40.1695 42.7922L40.1829 42.9416L40.1695 42.7922ZM19.6188 34.6527V34.8032L19.6308 34.8022L19.6188 34.6527ZM19.6188 34.6527V34.5022L19.6067 34.5032L19.6188 34.6527ZM19.2952 34.62L19.2128 34.7454L19.2135 34.7458L19.2952 34.62ZM18.9317 34.1584L19.0816 34.1561L19.0816 34.156L18.9317 34.1584ZM19.2902 33.6994L19.3734 33.8242L19.3739 33.8239L19.2902 33.6994ZM19.63 33.6571L19.6385 33.5074H19.6384L19.63 33.6571ZM19.7506 33.6618V33.8118H19.7506L19.7506 33.6618ZM40.9044 34.1773L41.0531 34.1966L41.0531 34.1966L40.9044 34.1773ZM40.1385 34.6489L40.1359 34.7989H40.1359L40.1385 34.6489ZM40.0351 34.6476L40.0356 34.4976H40.0352L40.0351 34.6476ZM22.4277 48.3581L22.4278 48.5081L22.4277 48.3581ZM24.6596 48.3572L24.6597 48.5072L24.6596 48.3572ZM27.5146 48.3588L27.5151 48.2088H27.515L27.5146 48.3588ZM28.1196 47.8647L27.9696 47.8625L27.9696 47.8626L28.1196 47.8647ZM27.5598 47.378L27.5598 47.528H27.5598V47.378ZM26.2558 47.3771L26.2559 47.2271L26.2558 47.3771ZM19.4712 47.3943L19.4722 47.5443L19.4726 47.5443L19.4712 47.3943ZM18.9315 47.7819L18.795 47.7197L18.795 47.7197L18.9315 47.7819ZM19.5203 48.3551L19.5194 48.5051L19.5195 48.5051L19.5203 48.3551ZM14.9972 37.3161C14.9956 38.853 14.9941 40.39 14.9941 41.9271H15.2941C15.2941 40.3902 15.2956 38.8534 15.2972 37.3164L14.9972 37.3161ZM14.9972 37.3162V37.3163H15.2972V37.3162H14.9972ZM14.9972 37.3161V37.3162H15.2972V37.3161H14.9972ZM14.9972 37.3161V37.3161H15.2972V37.3161H14.9972ZM14.9972 37.316V37.3161H15.2972V37.316H14.9972ZM14.9972 37.3159V37.316H15.2972V37.3159H14.9972ZM14.9972 37.3159V37.3159H15.2972V37.3159H14.9972ZM14.9972 37.3158V37.3159H15.2972V37.3158H14.9972ZM14.979 24.8424C15.0056 28.9994 15.0014 33.1571 14.9972 37.3156L15.2972 37.3159C15.3014 33.1576 15.3056 28.9988 15.279 24.8405L14.979 24.8424ZM17.4908 22.351C16.6956 22.3477 16.0616 22.6155 15.6279 23.0701C15.1953 23.5235 14.9744 24.1498 14.979 24.8425L15.279 24.8405C15.2748 24.2124 15.4746 23.6653 15.8449 23.2771C16.2142 22.8901 16.7651 22.648 17.4895 22.651L17.4908 22.351ZM36.2098 22.3724C29.9698 22.3762 23.7303 22.38 17.4909 22.351L17.4895 22.651C23.7298 22.68 29.9701 22.6762 36.21 22.6724L36.2098 22.3724ZM42.5826 22.3698C40.4583 22.3698 38.334 22.3711 36.2098 22.3724L36.21 22.6724C38.3342 22.6711 40.4584 22.6698 42.5826 22.6698V22.3698ZM45.017 24.8114C45.017 24.0334 44.8138 23.4165 44.3928 22.9947C43.9718 22.5729 43.3566 22.3698 42.5826 22.3698V22.6698C43.3068 22.6698 43.8338 22.8593 44.1805 23.2067C44.5272 23.5541 44.717 24.0829 44.717 24.8114H45.017ZM45.0173 47.7493C45.0176 40.1036 45.0179 32.4575 45.017 24.8113L44.717 24.8114C44.7179 32.4575 44.7176 40.1035 44.7173 47.7493L45.0173 47.7493ZM45.017 59.2171L45.0173 47.7493L44.7173 47.7493L44.717 59.2171L45.017 59.2171ZM45.0236 59.3185C45.0198 59.2775 45.017 59.2453 45.017 59.2171H44.717C44.717 59.2614 44.7213 59.3078 44.7248 59.3457L45.0236 59.3185ZM45.0227 59.311L45.0227 59.3109L44.7257 59.3533L44.7257 59.3534L45.0227 59.311ZM45.0242 59.3322V59.3322H44.7242V59.3322H45.0242ZM44.9671 59.676C45.0167 59.6114 45.0281 59.5357 45.0307 59.4808C45.0335 59.4244 45.0278 59.3646 45.0236 59.3187L44.7248 59.3458C44.7295 59.397 44.7326 59.4348 44.7311 59.4661C44.7295 59.4989 44.7234 59.5008 44.7292 59.4933L44.9671 59.676ZM44.9496 59.6989L44.9674 59.6756L44.7289 59.4936L44.7112 59.5169L44.9496 59.6989ZM44.3503 60.1736C44.4279 60.1748 44.497 60.1465 44.5523 60.1133C44.6082 60.0798 44.6599 60.0354 44.7059 59.9898C44.7972 59.8992 44.8832 59.786 44.9497 59.6989L44.7111 59.5169C44.6419 59.6077 44.5685 59.7035 44.4945 59.7769C44.4579 59.8133 44.4255 59.8396 44.3981 59.856C44.37 59.8728 44.3566 59.8737 44.3548 59.8736L44.3503 60.1736ZM43.7478 59.6465C43.8082 59.7455 43.8923 59.8683 43.9862 59.9686C44.0332 60.0187 44.0862 60.0671 44.1434 60.1041C44.1996 60.1403 44.2704 60.1724 44.3502 60.1736L44.3548 59.8736C44.3522 59.8736 44.3367 59.8718 44.3061 59.852C44.2766 59.833 44.2424 59.8032 44.2052 59.7635C44.1309 59.6841 44.059 59.5805 44.0037 59.4901L43.7478 59.6465ZM43.7002 59.2407C43.6947 59.2967 43.6877 59.3653 43.69 59.4308C43.6923 59.4963 43.7039 59.5755 43.7481 59.6471L44.0034 59.4895C43.9985 59.4815 43.9913 59.4625 43.9898 59.4205C43.9884 59.3786 43.9928 59.3305 43.9988 59.2699L43.7002 59.2407ZM43.7094 59.1067C43.7094 59.1455 43.7053 59.1885 43.7002 59.2407L43.9988 59.2699C44.0036 59.2209 44.0094 59.1629 44.0094 59.1067H43.7094ZM43.7094 24.9355V59.1067H44.0094V24.9355H43.7094ZM42.4492 23.6569C43.0045 23.6569 43.2987 23.7355 43.465 23.9042C43.632 24.0735 43.7094 24.3731 43.7094 24.9355H44.0094C44.0094 24.3716 43.9383 23.9569 43.6786 23.6935C43.4182 23.4295 43.0072 23.3569 42.4492 23.3569V23.6569ZM17.5455 23.6569H42.4492V23.3569H17.5455V23.6569ZM16.3092 24.9067C16.3092 24.3588 16.3864 24.0661 16.5505 23.9003C16.714 23.735 17.0028 23.6569 17.5455 23.6569V23.3569C16.9989 23.3569 16.5944 23.4294 16.3372 23.6893C16.0805 23.9487 16.0092 24.3558 16.0092 24.9067H16.3092ZM16.308 59.0779C16.3092 47.6879 16.3092 36.2967 16.3092 24.9067H16.0092C16.0092 36.2967 16.0092 47.6879 16.008 59.0779L16.308 59.0779ZM16.3152 59.2269C16.3113 59.1715 16.308 59.1229 16.308 59.0779H16.008C16.008 59.1353 16.0122 59.1947 16.0159 59.2479L16.3152 59.2269ZM16.2567 59.7055C16.3029 59.6247 16.3177 59.5357 16.3219 59.4572C16.3261 59.3788 16.3201 59.2968 16.3152 59.2269L16.0159 59.2479C16.0211 59.3218 16.0253 59.3847 16.0223 59.4412C16.0193 59.4976 16.0095 59.5335 15.9963 59.5566L16.2567 59.7055ZM15.6399 60.1774C15.781 60.1795 15.9135 60.091 16.0065 60.0091C16.1067 59.921 16.1973 59.8086 16.2565 59.7059L15.9966 59.5561C15.9538 59.6303 15.8841 59.7173 15.8084 59.7838C15.7257 59.8565 15.667 59.8777 15.6445 59.8774L15.6399 60.1774ZM15.0429 59.6943C15.1035 59.789 15.1876 59.9016 15.282 59.9931C15.3691 60.0774 15.4953 60.1741 15.6388 60.1773L15.6456 59.8774C15.6244 59.8769 15.5707 59.855 15.4908 59.7776C15.4182 59.7072 15.3482 59.6148 15.2956 59.5326L15.0429 59.6943ZM14.9881 59.2796C14.9834 59.3371 14.9774 59.4075 14.9807 59.4745C14.9839 59.5412 14.9968 59.6218 15.0426 59.6939L15.2958 59.533C15.2903 59.5243 15.2825 59.5038 15.2803 59.4598C15.2782 59.416 15.282 59.366 15.2871 59.304L14.9881 59.2796ZM14.9953 59.1531C14.9953 59.1901 14.9921 59.2308 14.9881 59.2796L15.2871 59.304C15.2909 59.258 15.2953 59.2046 15.2953 59.1531H14.9953ZM14.9941 41.9271C14.9941 47.6691 14.9941 53.4111 14.9953 59.1532L15.2953 59.1531C15.2941 53.4111 15.2941 47.6691 15.2941 41.9271H14.9941ZM6.81138 60.8998C6.64605 60.8998 6.46709 60.906 6.30305 60.9615C6.13155 61.0195 5.98127 61.1295 5.87096 61.3229L6.13156 61.4715C6.20365 61.3451 6.29364 61.2814 6.39921 61.2457C6.51223 61.2074 6.64713 61.1998 6.81138 61.1998V60.8998ZM15.8314 60.9036C12.8246 60.9038 9.81853 60.904 6.81159 60.8998L6.81117 61.1998C9.81837 61.204 12.8247 61.2038 15.8314 61.2036L15.8314 60.9036ZM15.8315 60.9036H15.8314V61.2036H15.8315V60.9036ZM15.8316 60.9036H15.8315V61.2036H15.8316V60.9036ZM15.8316 60.9036H15.8316V61.2036H15.8316V60.9036ZM15.8317 60.9036H15.8316V61.2036H15.8317V60.9036ZM15.8318 60.9036H15.8317V61.2036H15.8318V60.9036ZM15.8318 60.9036H15.8318V61.2036H15.8318V60.9036ZM15.8319 60.9036H15.8318V61.2036H15.8319V60.9036ZM17.6373 60.9036L15.8319 60.9036L15.8319 61.2036L17.6373 61.2036L17.6373 60.9036ZM52.9859 60.9036H17.6373V61.2036H52.9859V60.9036ZM54.1005 62.1621C54.1348 61.92 54.1558 61.7191 54.1488 61.5567C54.1418 61.3937 54.106 61.2475 54.0061 61.135C53.9066 61.023 53.7651 60.9688 53.6028 60.9398C53.4405 60.9109 53.2352 60.9036 52.9859 60.9036V61.2036C53.2346 61.2036 53.4164 61.2113 53.5501 61.2352C53.6837 61.259 53.7472 61.2953 53.7818 61.3343C53.816 61.3727 53.8435 61.438 53.8491 61.5696C53.8548 61.7017 53.8377 61.8785 53.8035 62.12L54.1005 62.1621ZM49.507 66.1429C51.8882 66.1325 53.7704 64.4825 54.1005 62.1621L53.8035 62.1199C53.4945 64.2923 51.7387 65.8332 49.5057 65.8429L49.507 66.1429ZM42.789 66.1496C45.0279 66.1517 47.2672 66.1539 49.5071 66.1429L49.5056 65.8429C47.2667 65.8539 45.0284 65.8517 42.7893 65.8496L42.789 66.1496ZM42.789 66.1496H42.7891V65.8496H42.789V66.1496ZM42.7889 66.1496H42.789V65.8496H42.7889V66.1496ZM42.7888 66.1496H42.7889V65.8496H42.7888V66.1496ZM42.7887 66.1496H42.7888V65.8496H42.7887V66.1496ZM42.7886 66.1496H42.7887V65.8496H42.7886V66.1496ZM42.7885 66.1496H42.7886V65.8496H42.7885V66.1496ZM42.7884 66.1496H42.7885V65.8496H42.7884V66.1496ZM39.5749 66.1479C40.646 66.1475 41.7171 66.1485 42.7882 66.1496L42.7885 65.8496C41.7174 65.8485 40.6462 65.8475 39.5748 65.8479L39.5749 66.1479ZM10.9098 66.1479H39.5748V65.8479H10.9098V66.1479ZM5.9085 62.2587C6.23166 63.5615 6.79449 64.539 7.63037 65.1891C8.46611 65.839 9.55705 66.1479 10.9098 66.1479V65.8479C9.60197 65.8479 8.58269 65.5497 7.81454 64.9523C7.04652 64.355 6.51179 63.4448 6.19968 62.1864L5.9085 62.2587ZM5.91027 62.2739C5.91424 62.2782 5.9165 62.2807 5.91842 62.2829C5.92022 62.2849 5.92049 62.2854 5.92001 62.2847C5.91944 62.2839 5.91191 62.2737 5.90784 62.2559L6.20034 62.1892C6.1854 62.1236 6.13731 62.0776 6.13034 62.07L5.91027 62.2739ZM5.88013 62.2387C5.89164 62.254 5.90419 62.2674 5.91028 62.2739L6.13033 62.07C6.12658 62.066 6.1243 62.0635 6.12232 62.0613C6.12045 62.0591 6.11983 62.0583 6.11987 62.0584L5.88013 62.2387ZM5.85126 61.3972C5.85126 61.6469 5.85126 61.8974 5.85 62.1478L6.15 62.1493C6.15126 61.898 6.15126 61.6468 6.15126 61.3972H5.85126ZM7.05165 62.2371H52.923V61.9371H7.05165V62.2371ZM8.41444 64.1321C7.7531 63.6049 7.35294 62.9315 7.19937 62.061L6.90393 62.1131C7.06988 63.0538 7.50751 63.7928 8.22742 64.3667L8.41444 64.1321ZM10.6897 64.8482C9.83756 64.8482 9.07502 64.6584 8.41439 64.1321L8.22747 64.3668C8.95561 64.9468 9.79068 65.1482 10.6897 65.1482V64.8482ZM36.4673 64.8452C27.8748 64.8454 19.2825 64.8457 10.6896 64.8482L10.6897 65.1482C19.2825 65.1457 27.8748 65.1454 36.4673 65.1452L36.4673 64.8452ZM36.6412 64.8452L36.4673 64.8452L36.4673 65.1452L36.6413 65.1452L36.6412 64.8452ZM36.6413 64.8452H36.6413V65.1452H36.6413V64.8452ZM36.6414 64.8452H36.6413V65.1452H36.6414V64.8452ZM36.6414 64.8452H36.6414V65.1452H36.6414V64.8452ZM36.6415 64.8452H36.6414V65.1452H36.6415V64.8452ZM36.6415 64.8452H36.6415V65.1452H36.6415V64.8452ZM49.3365 64.8445C45.1048 64.8449 40.8731 64.845 36.6415 64.8452L36.6415 65.1452C40.8731 65.145 45.1048 65.1449 49.3365 65.1445L49.3365 64.8445ZM49.935 64.8187C49.7355 64.8359 49.536 64.8445 49.3365 64.8445V65.1445C49.5446 65.1445 49.7527 65.1355 49.9608 65.1176L49.935 64.8187ZM52.7737 62.0725C52.6376 63.4614 51.3654 64.6931 49.9348 64.8187L49.961 65.1176C51.5294 64.9798 52.9215 63.6402 53.0722 62.1017L52.7737 62.0725ZM30.0154 26.4308L32.3516 26.4306L32.3515 26.1306L30.0153 26.1308L30.0154 26.4308ZM28.2623 26.4307L30.0153 26.4308L30.0154 26.1308L28.2623 26.1307L28.2623 26.4307ZM23.0062 26.4321C24.758 26.4302 26.5098 26.4304 28.2622 26.4307L28.2623 26.1307C26.5099 26.1304 24.7579 26.1302 23.0059 26.1321L23.0062 26.4321ZM22.3685 27.0826C22.3689 26.9179 22.3772 26.7966 22.3964 26.7057C22.4153 26.6163 22.4425 26.5672 22.473 26.5362C22.5032 26.5055 22.5507 26.4783 22.6374 26.4595C22.726 26.4403 22.8444 26.4321 23.006 26.4321V26.1321C22.8387 26.1321 22.6944 26.1402 22.5738 26.1663C22.4514 26.1929 22.3433 26.2402 22.2591 26.3258C22.1751 26.4112 22.1289 26.5203 22.1028 26.6437C22.0771 26.7656 22.0689 26.9118 22.0686 27.082L22.3685 27.0826ZM22.368 27.5173L22.3685 27.0825L22.0686 27.0821L22.068 27.5169L22.368 27.5173ZM22.368 27.5175V27.5171H22.068V27.5175H22.368ZM22.368 27.518V27.5175H22.068V27.518H22.368ZM22.368 27.5184V27.518H22.068V27.5184H22.368ZM22.368 27.5189V27.5184H22.068V27.5189H22.368ZM22.368 27.5194V27.5189H22.068V27.5194H22.368ZM22.368 27.5198V27.5194H22.068V27.5198H22.368ZM22.3698 30.1307C22.3655 29.2611 22.3667 28.3905 22.368 27.52L22.068 27.5196C22.0667 28.3899 22.0655 29.2615 22.0698 30.1322L22.3698 30.1307ZM22.9809 30.7227C22.681 30.7227 22.5488 30.6808 22.4809 30.6147C22.4142 30.5497 22.3711 30.4232 22.3698 30.1308L22.0698 30.1321C22.0711 30.4267 22.1085 30.6708 22.2716 30.8296C22.4336 30.9874 22.6807 31.0227 22.9809 31.0227V30.7227ZM37.0473 30.7227C32.3589 30.7239 27.6693 30.7239 22.9809 30.7227L22.9808 31.0227C27.6693 31.024 32.3589 31.024 37.0474 31.0227L37.0473 30.7227ZM37.632 30.1543C37.6301 30.4382 37.5883 30.5585 37.5255 30.6196C37.4617 30.6818 37.3365 30.7221 37.047 30.7227L37.0476 31.0227C37.3368 31.0221 37.577 30.9883 37.7349 30.8345C37.8939 30.6796 37.9301 30.4418 37.932 30.1562L37.632 30.1543ZM37.632 27.0128C37.637 28.0596 37.637 29.1064 37.632 30.1545L37.932 30.156C37.937 29.1069 37.937 28.0591 37.932 27.0113L37.632 27.0128ZM37.0247 26.4308C37.1785 26.4308 37.2916 26.4383 37.3763 26.4559C37.4596 26.4732 37.5047 26.498 37.5329 26.525C37.5606 26.5517 37.5859 26.594 37.6039 26.673C37.6224 26.754 37.631 26.8631 37.632 27.013L37.932 27.0111C37.931 26.855 37.9223 26.7197 37.8964 26.6062C37.87 26.4907 37.8236 26.3884 37.7408 26.3088C37.6584 26.2296 37.554 26.1863 37.4372 26.1621C37.3218 26.1382 37.1841 26.1308 37.0247 26.1308V26.4308ZM32.3516 26.4306C33.9094 26.4303 35.4673 26.43 37.0246 26.4308L37.0248 26.1308C35.4673 26.13 33.9093 26.1303 32.3515 26.1306L32.3516 26.4306ZM23.2551 29.9729H36.7555V29.6729H23.2551V29.9729ZM23.1051 27.3005V29.8229H23.4051V27.3005H23.1051ZM36.7555 27.1505H23.2551V27.4505H36.7555V27.1505ZM36.9055 29.8229V27.3005H36.6055V29.8229H36.9055ZM52.1013 59.1341V46.6065H51.8013V59.1341H52.1013ZM52.1096 59.2535C52.1049 59.2061 52.1013 59.168 52.1013 59.1341H51.8013C51.8013 59.1856 51.8067 59.239 51.8111 59.2832L52.1096 59.2535ZM52.065 59.6282C52.1068 59.5606 52.1172 59.4862 52.1191 59.4264C52.1211 59.3665 52.1146 59.3037 52.1096 59.2535L51.8111 59.2832C51.8165 59.3379 51.8205 59.3802 51.8193 59.4168C51.8181 59.4536 51.8119 59.4671 51.8099 59.4703L52.065 59.6282ZM51.5086 60.1804C51.6495 60.1462 51.762 60.0416 51.8452 59.9436C51.9314 59.842 52.0062 59.7229 52.0649 59.6283L51.81 59.4702C51.7504 59.5662 51.6863 59.6672 51.6165 59.7494C51.5437 59.8352 51.4832 59.8779 51.4379 59.8889L51.5086 60.1804ZM50.8023 59.5847C50.8233 59.7596 50.8899 59.9297 51.0096 60.048C51.1352 60.1722 51.3097 60.2285 51.5085 60.1804L51.438 59.8888C51.3411 59.9123 51.2729 59.8864 51.2205 59.8347C51.1622 59.7771 51.1156 59.6776 51.1001 59.5489L50.8023 59.5847ZM50.7908 59.1855C50.7887 59.3106 50.786 59.4481 50.8022 59.5845L51.1002 59.5491C51.0868 59.4364 51.0886 59.3195 51.0908 59.1907L50.7908 59.1855ZM50.7908 59.188V59.1881H51.0908V59.188H50.7908ZM50.7924 59.0513C50.7924 59.0952 50.7916 59.1395 50.7908 59.1854L51.0908 59.1906C51.0916 59.1452 51.0924 59.0983 51.0924 59.0513H50.7924ZM50.7924 34.4188V59.0513H51.0924V34.4188H50.7924ZM50.7928 34.2838C50.7926 34.3285 50.7924 34.3735 50.7924 34.4188H51.0924C51.0924 34.3743 51.0926 34.3299 51.0928 34.2852L50.7928 34.2838ZM50.7912 33.9533C50.7938 34.0627 50.7933 34.1719 50.7928 34.2838L51.0928 34.2852C51.0933 34.174 51.0938 34.0605 51.0911 33.9461L50.7912 33.9533ZM49.3669 32.5381C49.8047 32.5434 50.1517 32.6867 50.392 32.9262C50.6325 33.1658 50.7789 33.5145 50.7912 33.9539L51.0911 33.9455C51.077 33.4429 50.9076 33.0164 50.6037 32.7137C50.2997 32.4106 49.8737 32.2442 49.3705 32.2381L49.3669 32.5381ZM46.5472 32.5381C47.4874 32.5293 48.4273 32.5281 49.3671 32.5381L49.3703 32.2381C48.4282 32.2281 47.4862 32.2293 46.5444 32.2381L46.5472 32.5381ZM45.7254 31.912C45.7324 32.1546 45.8342 32.326 46.0055 32.4264C46.1632 32.5189 46.3619 32.5401 46.5474 32.5381L46.5443 32.2381C46.3738 32.2399 46.2429 32.2178 46.1572 32.1676C46.0851 32.1254 46.0296 32.0547 46.0253 31.9034L45.7254 31.912ZM46.5564 31.2335C46.365 31.2328 46.1564 31.2562 45.9939 31.3567C45.8163 31.4664 45.7178 31.6521 45.7254 31.9121L46.0253 31.9033C46.0203 31.7345 46.0778 31.6574 46.1515 31.6119C46.2402 31.5571 46.3782 31.5329 46.5554 31.5335L46.5564 31.2335ZM47.5141 31.2308C47.1943 31.2326 46.8752 31.2343 46.5563 31.2335L46.5555 31.5335C46.8758 31.5343 47.1961 31.5326 47.5157 31.5308L47.5141 31.2308ZM47.515 31.2308H47.5149V31.5308H47.515V31.2308ZM49.3826 31.2398C48.7593 31.224 48.1354 31.2274 47.5142 31.2308L47.5158 31.5308C48.1378 31.5274 48.7571 31.524 49.375 31.5397L49.3826 31.2398ZM52.1013 34.0323C52.1006 33.2263 51.8314 32.536 51.3509 32.0417C50.8703 31.5472 50.1886 31.2594 49.3824 31.2398L49.3751 31.5397C50.1125 31.5577 50.7163 31.8192 51.1358 32.2508C51.5553 32.6824 51.8007 33.2946 51.8013 34.0326L52.1013 34.0323ZM52.1018 42.4147C52.1024 39.6203 52.103 36.8261 52.1013 34.0324L51.8013 34.0326C51.8029 36.8261 51.8024 39.6202 51.8018 42.4146L52.1018 42.4147ZM52.1013 46.6065C52.1013 45.2092 52.1016 43.8119 52.1018 42.4147L51.8018 42.4146C51.8016 43.8118 51.8013 45.2092 51.8013 46.6065H52.1013ZM8.21708 46.6126L8.2168 42.4685L7.9168 42.4685L7.91708 46.6126L8.21708 46.6126ZM8.21834 59.1402C8.21708 54.9622 8.21708 50.7881 8.21708 46.6126H7.91708C7.91708 50.7881 7.91708 54.9623 7.91834 59.1403L8.21834 59.1402ZM8.21897 59.327C8.21865 59.2645 8.21834 59.2025 8.21834 59.1402H7.91834C7.91834 59.2034 7.91866 59.2662 7.91897 59.3285L8.21897 59.327ZM8.2196 59.5153C8.2196 59.4521 8.21928 59.3893 8.21897 59.327L7.91897 59.3285C7.91929 59.391 7.9196 59.453 7.9196 59.5153H8.2196ZM8.54558 59.9022C8.42699 59.8969 8.35115 59.8559 8.30326 59.7997C8.25345 59.7413 8.21907 59.6488 8.2196 59.5159L7.9196 59.5147C7.91887 59.6977 7.96626 59.8668 8.07495 59.9943C8.18556 60.1241 8.34496 60.1935 8.53205 60.2019L8.54558 59.9022ZM8.90723 59.5077C8.90118 59.6517 8.86279 59.7517 8.80848 59.8122C8.75826 59.8682 8.67874 59.9081 8.54546 59.9022L8.53218 60.2019C8.73854 60.2111 8.91124 60.1469 9.03179 60.0126C9.14825 59.8827 9.19917 59.7061 9.20696 59.5203L8.90723 59.5077ZM8.91112 59.1499C8.91155 59.272 8.91195 59.3899 8.90721 59.508L9.20697 59.52C9.21202 59.3943 9.21155 59.2699 9.21112 59.1488L8.91112 59.1499ZM8.91087 59.0453L8.91112 59.1497L9.21112 59.149L9.21087 59.0445L8.91087 59.0453ZM8.91087 44.079V59.0449H9.21087V44.079H8.91087ZM8.91087 34.4149V44.079H9.21087V34.4149H8.91087ZM11.0711 32.2367C10.2998 32.2367 9.74241 32.3565 9.38582 32.7162C9.02963 33.0755 8.91087 33.6368 8.91087 34.4149H9.21087C9.21087 33.6489 9.33237 33.1962 9.59887 32.9274C9.86497 32.659 10.3127 32.5367 11.0711 32.5367V32.2367ZM11.7623 32.2357C11.5317 32.2362 11.3013 32.2367 11.0711 32.2367V32.5367C11.3017 32.5367 11.5325 32.5362 11.763 32.5357L11.7623 32.2357ZM11.7628 32.2357H11.7627V32.5357H11.7628V32.2357ZM11.7628 32.2357H11.7628V32.5357H11.7628V32.2357ZM11.7629 32.2357H11.7628V32.5357H11.7629V32.2357ZM11.763 32.2357H11.7629V32.5357H11.763V32.2357ZM13.4251 32.2393C12.8708 32.233 12.316 32.2344 11.7626 32.2357L11.7633 32.5357C12.317 32.5344 12.8698 32.5331 13.4218 32.5392L13.4251 32.2393ZM13.9872 31.8927C13.9725 32.0709 13.9074 32.1417 13.8325 32.1804C13.7401 32.2281 13.6052 32.2411 13.425 32.2393L13.4219 32.5392C13.6015 32.5411 13.805 32.5322 13.9701 32.447C14.1528 32.3527 14.2645 32.1795 14.2862 31.9175L13.9872 31.8927ZM13.4026 31.5371C13.6434 31.5383 13.7971 31.5815 13.8839 31.6424C13.9586 31.6948 13.9973 31.7692 13.9872 31.8929L14.2862 31.9173C14.3038 31.7011 14.2287 31.5178 14.0562 31.3968C13.8958 31.2842 13.669 31.2384 13.4041 31.2371L13.4026 31.5371ZM10.8627 31.5358C11.7092 31.5333 12.5565 31.5321 13.4024 31.5371L13.4042 31.2371C12.5569 31.2321 11.7085 31.2333 10.8618 31.2358L10.8627 31.5358ZM8.21708 34.1803C8.21708 33.3171 8.46092 32.6623 8.90084 32.2227C9.34084 31.783 9.99714 31.5383 10.8627 31.5358L10.8618 31.2358C9.94108 31.2384 9.19979 31.4998 8.68878 32.0105C8.17769 32.5213 7.91708 33.2613 7.91708 34.1803H8.21708ZM8.2168 42.4685C8.21653 39.7058 8.21625 36.9431 8.21708 34.1804L7.91708 34.1803C7.91624 36.9431 7.91652 39.7058 7.9168 42.4685L8.2168 42.4685ZM40.0376 38.0688C36.6486 38.0675 33.2596 38.0675 29.8707 38.0675V38.3675C33.2597 38.3675 36.6486 38.3675 40.0375 38.3688L40.0376 38.0688ZM40.1581 38.0629C40.1119 38.0661 40.0729 38.0688 40.0375 38.0688V38.3688C40.0853 38.3688 40.1352 38.3652 40.179 38.3622L40.1581 38.0629ZM40.1592 38.0628L40.1592 38.0628L40.1779 38.3622L40.1779 38.3622L40.1592 38.0628ZM40.5843 38.1275C40.5118 38.0765 40.4277 38.0619 40.3597 38.0577C40.2908 38.0533 40.2176 38.0587 40.1581 38.0629L40.1791 38.3621C40.2433 38.3577 40.2956 38.3542 40.3408 38.3571C40.387 38.36 40.4056 38.3686 40.4116 38.3728L40.5843 38.1275ZM41.0337 38.7375C41.0241 38.6003 40.9448 38.4758 40.8644 38.381C40.7806 38.2821 40.6772 38.1941 40.5853 38.1282L40.4106 38.3721C40.4884 38.4279 40.5718 38.4997 40.6356 38.5749C40.7026 38.6541 40.7316 38.7177 40.7345 38.7586L41.0337 38.7375ZM40.5821 39.325C40.6733 39.2671 40.7819 39.1832 40.8684 39.0908C40.9117 39.0447 40.953 38.9926 40.9834 38.9372C41.0131 38.8832 41.039 38.8139 41.0338 38.7377L40.7345 38.7584C40.7342 38.755 40.7356 38.7652 40.7205 38.7928C40.7061 38.819 40.6823 38.8506 40.6495 38.8857C40.5838 38.9558 40.4961 39.0243 40.4213 39.0717L40.5821 39.325ZM40.1597 39.3852C40.219 39.3891 40.291 39.3941 40.3596 39.3898C40.4281 39.3854 40.5094 39.3712 40.5821 39.325L40.4212 39.0718C40.4097 39.0791 40.3865 39.0875 40.3407 39.0903C40.295 39.0932 40.2431 39.09 40.1795 39.0859L40.1597 39.3852ZM40.04 39.3797C40.0758 39.3797 40.1145 39.3822 40.1597 39.3852L40.1795 39.0859C40.1364 39.083 40.0874 39.0797 40.04 39.0797V39.3797ZM19.7542 39.381C26.517 39.381 33.2785 39.381 40.0401 39.3797L40.04 39.0797C33.2785 39.081 26.517 39.081 19.7542 39.081V39.381ZM19.6703 39.3818C19.6993 39.3814 19.7269 39.381 19.7542 39.381V39.081C19.7243 39.081 19.6944 39.0814 19.6657 39.0819L19.6703 39.3818ZM19.6679 39.3818H19.668V39.0818H19.6679V39.3818ZM19.6678 39.3818H19.6679V39.0818H19.6678V39.3818ZM19.6677 39.3818H19.6678V39.0818H19.6677V39.3818ZM19.6677 39.3818H19.6677V39.0818H19.6677V39.3818ZM19.6677 39.3818H19.6677V39.0818H19.6677V39.3818ZM19.4093 39.3752C19.5002 39.3845 19.5904 39.383 19.6699 39.3818L19.6654 39.0819C19.5829 39.0831 19.5104 39.084 19.4401 39.0767L19.4093 39.3752ZM18.7602 38.7261C18.7609 38.9207 18.8274 39.0809 18.9537 39.1948C19.076 39.3051 19.239 39.3583 19.4098 39.3752L19.4395 39.0767C19.3072 39.0636 19.2135 39.0251 19.1547 38.9721C19.0999 38.9226 19.0606 38.8476 19.0602 38.7249L18.7602 38.7261ZM19.4079 38.0745C19.2372 38.0908 19.0739 38.144 18.9517 38.2549C18.8254 38.3694 18.7594 38.5306 18.7602 38.7261L19.0602 38.7249C19.0597 38.6019 19.0987 38.5266 19.1532 38.4771C19.2118 38.424 19.3052 38.3857 19.4364 38.3731L19.4079 38.0745ZM19.7292 38.0674C19.6285 38.0657 19.518 38.0636 19.4074 38.0745L19.4369 38.3731C19.5273 38.3641 19.6203 38.3656 19.724 38.3674L19.7292 38.0674ZM19.8461 38.0688C19.8077 38.0688 19.7692 38.0681 19.7292 38.0674L19.724 38.3674C19.7635 38.3681 19.8047 38.3688 19.8461 38.3688V38.0688ZM29.8707 38.0675C26.5296 38.0675 23.1884 38.0675 19.846 38.0688L19.8461 38.3688C23.1885 38.3675 26.5296 38.3675 29.8707 38.3675V38.0675ZM29.97 42.9502H40.0399V42.6502H29.97V42.9502ZM19.807 42.9502H29.97V42.6502H19.807V42.9502ZM19.0563 43.2934C19.0571 43.2206 19.07 43.1708 19.0892 43.1351C19.1075 43.101 19.1363 43.0706 19.1856 43.0436C19.2931 42.9849 19.4837 42.9502 19.807 42.9502V42.6502C19.4787 42.6502 19.2208 42.6825 19.0418 42.7803C18.9479 42.8316 18.8739 42.9017 18.8248 42.9933C18.7765 43.0834 18.7574 43.1844 18.7563 43.2903L19.0563 43.2934ZM19.7982 43.6498C19.4815 43.6498 19.2917 43.6122 19.1846 43.5511C19.1351 43.5228 19.1056 43.4907 19.0871 43.4548C19.0679 43.4176 19.0555 43.3664 19.0563 43.2934L18.7563 43.2903C18.7552 43.3979 18.7731 43.5006 18.8205 43.5924C18.8687 43.6857 18.9421 43.758 19.0358 43.8116C19.2153 43.9141 19.4733 43.9498 19.7982 43.9498V43.6498ZM19.8288 43.6498H19.7982V43.9498H19.8288V43.6498ZM40.0324 43.6486C33.2974 43.6498 26.5638 43.6498 19.8288 43.6498V43.9498C26.5638 43.9498 33.2975 43.9498 40.0324 43.9486L40.0324 43.6486ZM40.165 43.6538C40.1236 43.6514 40.0772 43.6486 40.0324 43.6486V43.9486C40.0668 43.9486 40.1041 43.9507 40.1473 43.9533L40.165 43.6538ZM40.4078 43.6386C40.3988 43.6448 40.3772 43.6537 40.3301 43.6572C40.2835 43.6605 40.2301 43.6576 40.165 43.6538L40.1473 43.9533C40.2079 43.9568 40.2819 43.9614 40.3517 43.9564C40.421 43.9513 40.5049 43.936 40.5778 43.8858L40.4078 43.6386ZM40.7316 43.2827C40.7318 43.2874 40.7303 43.3037 40.7144 43.3341C40.699 43.3635 40.6744 43.3979 40.641 43.4354C40.5743 43.5105 40.4853 43.5842 40.4066 43.6394L40.5789 43.885C40.6701 43.8211 40.7786 43.7323 40.8653 43.6346C40.9088 43.5858 40.9499 43.5312 40.9802 43.4732C41.0101 43.4161 41.0343 43.3465 41.0314 43.2709L40.7316 43.2827ZM40.3741 42.9445C40.4599 43.0007 40.5551 43.0687 40.6284 43.1388C40.6649 43.1738 40.6923 43.2059 40.7102 43.2339C40.7284 43.2625 40.7314 43.2786 40.7317 43.2838L41.0313 43.2698C41.0278 43.1941 40.9978 43.1269 40.9631 43.0726C40.928 43.0176 40.8827 42.967 40.8359 42.9222C40.7425 42.8327 40.6289 42.7527 40.5385 42.6935L40.3741 42.9445ZM40.1829 42.9416C40.2389 42.9366 40.2824 42.9329 40.3199 42.9346C40.3578 42.9362 40.3716 42.9429 40.3747 42.9449L40.5379 42.6931C40.4698 42.649 40.3938 42.6375 40.3329 42.6348C40.2716 42.6322 40.2073 42.6382 40.156 42.6428L40.1829 42.9416ZM40.0399 42.9502C40.0891 42.9502 40.1401 42.9455 40.1829 42.9416L40.156 42.6428C40.1103 42.647 40.0731 42.6502 40.0399 42.6502V42.9502ZM19.7569 34.7951H29.9199V34.4951H19.7569V34.7951ZM19.6308 34.8022C19.6794 34.7983 19.7201 34.7951 19.7569 34.7951V34.4951C19.7058 34.4951 19.6527 34.4995 19.6068 34.5032L19.6308 34.8022ZM19.6188 34.8027H19.6188V34.5027H19.6188V34.8027ZM19.2135 34.7458C19.2857 34.7927 19.3672 34.806 19.4343 34.8094C19.5018 34.8128 19.5729 34.8069 19.6308 34.8022L19.6067 34.5032C19.5442 34.5082 19.4937 34.512 19.4496 34.5098C19.4052 34.5075 19.3851 34.4995 19.3769 34.4942L19.2135 34.7458ZM18.7817 34.1608C18.7838 34.2949 18.8637 34.4178 18.9396 34.5065C19.0203 34.6008 19.1217 34.6855 19.2128 34.7454L19.3776 34.4946C19.3065 34.4479 19.2274 34.3814 19.1675 34.3115C19.1028 34.2359 19.082 34.1813 19.0816 34.1561L18.7817 34.1608ZM19.2069 33.5746C19.1175 33.6343 19.0163 33.7191 18.936 33.8132C18.8613 33.9007 18.7795 34.0252 18.7817 34.1609L19.0816 34.156C19.0813 34.1361 19.0989 34.0844 19.1642 34.0079C19.2238 33.9381 19.3031 33.8711 19.3734 33.8241L19.2069 33.5746ZM19.6384 33.5074C19.5779 33.5039 19.5038 33.4995 19.4335 33.5048C19.3636 33.51 19.2799 33.5256 19.2065 33.5749L19.3739 33.8239C19.3848 33.8165 19.4082 33.8075 19.4557 33.8039C19.5028 33.8004 19.5565 33.8032 19.6216 33.8069L19.6384 33.5074ZM19.7506 33.5118C19.717 33.5118 19.6806 33.5097 19.6385 33.5074L19.6216 33.8069C19.6619 33.8092 19.707 33.8118 19.7506 33.8118V33.5118ZM40.0301 33.5105C33.2698 33.5105 26.5108 33.5105 19.7506 33.5118L19.7506 33.8118C26.5109 33.8105 33.2698 33.8105 40.0301 33.8105V33.5105ZM41.0531 34.1966C41.0674 34.0864 41.0579 33.9795 41.0134 33.8826C40.9685 33.7847 40.8937 33.7098 40.7994 33.6548C40.6185 33.5493 40.3541 33.5105 40.0301 33.5105V33.8105C40.3439 33.8105 40.5398 33.8507 40.6483 33.9139C40.6986 33.9433 40.7258 33.9751 40.7407 34.0077C40.7562 34.0414 40.7646 34.0888 40.7556 34.158L41.0531 34.1966ZM40.1359 34.7989C40.301 34.8017 40.5114 34.8079 40.6861 34.7352C40.7789 34.6967 40.8639 34.6357 40.9297 34.5423C40.9947 34.4503 41.0351 34.3351 41.0531 34.1966L40.7556 34.1579C40.7422 34.2612 40.7147 34.3268 40.6846 34.3694C40.6554 34.4108 40.6182 34.4386 40.571 34.4582C40.4656 34.502 40.3245 34.5021 40.1411 34.4989L40.1359 34.7989ZM40.0346 34.7976C40.0676 34.7977 40.1011 34.7983 40.1359 34.7989L40.1411 34.4989C40.1067 34.4983 40.071 34.4977 40.0356 34.4976L40.0346 34.7976ZM29.9199 34.7951C33.2912 34.7951 36.6637 34.7951 40.035 34.7976L40.0352 34.4976C36.6638 34.4951 33.2912 34.4951 29.9199 34.4951V34.7951ZM23.518 48.2076C23.1546 48.2076 22.7911 48.2079 22.4276 48.2081L22.4278 48.5081C22.7913 48.5079 23.1547 48.5076 23.518 48.5076V48.2076ZM24.6596 48.2072C24.279 48.2074 23.8985 48.2076 23.518 48.2076V48.5076C23.8986 48.5076 24.2792 48.5074 24.6597 48.5072L24.6596 48.2072ZM27.515 48.2088C26.563 48.2062 25.6112 48.2067 24.6596 48.2072L24.6597 48.5072C25.6114 48.5067 26.5628 48.5062 27.5141 48.5088L27.515 48.2088ZM27.9696 47.8626C27.9676 48.0125 27.9184 48.0871 27.8573 48.1308C27.7871 48.1809 27.6744 48.2094 27.5151 48.2088L27.514 48.5088C27.6994 48.5095 27.8867 48.4784 28.0316 48.3749C28.1856 48.265 28.2666 48.0918 28.2696 47.8667L27.9696 47.8626ZM27.5598 47.528C27.7061 47.528 27.809 47.5591 27.8719 47.6083C27.9279 47.652 27.9716 47.7251 27.9696 47.8625L28.2696 47.8668C28.2727 47.6542 28.2001 47.484 28.0566 47.3719C27.9201 47.2652 27.7406 47.228 27.5598 47.228V47.528ZM26.2557 47.5271C26.6904 47.5274 27.1251 47.5278 27.5598 47.528L27.5599 47.228C27.1253 47.2278 26.6906 47.2274 26.2559 47.2271L26.2557 47.5271ZM19.4726 47.5443C21.7328 47.5233 23.9941 47.5252 26.2557 47.5271L26.2559 47.2271C23.9946 47.2252 21.7318 47.2233 19.4698 47.2443L19.4726 47.5443ZM19.068 47.8441C19.0947 47.7855 19.1617 47.7074 19.2505 47.6422C19.3414 47.5755 19.4247 47.5446 19.4722 47.5443L19.4702 47.2443C19.3302 47.2452 19.1846 47.3185 19.073 47.4004C18.9592 47.4839 18.8501 47.5989 18.795 47.7197L19.068 47.8441ZM19.5211 48.2051C19.3374 48.204 19.1962 48.1444 19.1189 48.0708C19.0477 48.003 19.0301 47.9273 19.0681 47.844L18.795 47.7197C18.6971 47.9349 18.7613 48.1446 18.9121 48.2881C19.0568 48.4259 19.2779 48.5037 19.5194 48.5051L19.5211 48.2051ZM22.4276 48.2081C21.4583 48.2089 20.4893 48.2096 19.521 48.2051L19.5195 48.5051C20.4888 48.5096 21.4587 48.5089 22.4278 48.5081L22.4276 48.2081Z" fill="#221817"/>
<rect x="42" y="12" width="18" height="18" rx="9" fill="white"/>
<path d="M49.101 24.1725V23.2185H50.532V19.1415L49.425 19.8075L48.975 18.9615L50.865 17.8275H51.684V23.2185H53.025V24.1725H49.101Z" fill="#221817"/>
<path d="M34.5601 52.5992C34.594 53.0182 34.5588 53.55 34.6305 53.9639C34.6682 54.1846 34.7626 54.4493 34.9249 54.581C35.101 54.7227 35.2515 54.7495 35.6265 54.7495C35.6265 54.7495 35.7765 54.3866 35.7237 54.221C35.4016 53.2163 36.2986 52.5215 37.2131 52.5992C37.5238 52.6256 37.8282 52.7171 38.1389 52.7598C38.9679 52.8752 39.6321 52.3609 39.6963 51.5268C39.7252 51.1556 39.8498 50.8922 40.241 50.9235C40.6423 50.9561 40.7039 51.2772 40.6888 51.6209C40.6284 52.9492 39.3378 53.9877 38.0207 53.7607C37.7427 53.713 37.4697 53.6353 37.1904 53.6064C36.7112 53.5575 36.6256 53.6591 36.7464 54.1307C36.8936 54.7039 36.7778 55.1918 36.2923 55.5493C35.7966 55.913 35.2532 55.9832 34.701 55.6835C33.9915 55.2972 33.6719 54.6487 33.5952 53.8811C33.5487 53.4158 33.609 52.9404 33.5587 52.4763C33.5097 52.0336 33.4392 51.5732 33.2581 51.1756C33.1738 50.9888 32.7713 50.7981 32.58 50.8495C32.4039 50.8972 32.2077 51.271 32.2102 51.498C32.2165 52.0561 32.3612 52.6105 32.4002 53.1712C32.487 54.3953 32.18 55.5279 31.4881 56.5451C31.1359 57.0632 30.6805 57.4658 30.0427 57.5975C29.4603 57.7179 28.9332 57.5799 28.5722 57.1008C28.4703 56.9653 28.4779 56.6104 28.5848 56.4912C28.6942 56.3696 29.0326 56.3231 29.1961 56.4009C29.839 56.707 30.1409 56.6781 30.5812 56.0836C31.2969 55.1191 31.5309 54.0253 31.3787 52.8438C31.3271 52.4412 31.2365 52.0423 31.2076 51.6385C31.1397 50.7279 31.5812 50.0292 32.3108 49.8436C33.0669 49.6517 33.8971 50.023 34.2254 50.8357C34.4594 51.4139 34.5455 51.6417 34.5601 52.5992Z" fill="#FCCF2A" stroke="#FCCF2A" stroke-width="0.300001"/>
</g>
</svg>
